<svg xmlns="http://www.w3.org/2000/svg" viewBox="0 0 120 120" fill="none">
  <defs>
    <linearGradient id="glow" x1="0%" y1="0%" x2="100%" y2="100%">
      <stop offset="0%" style="stop-color:#f59e0b;stop-opacity:0.3"/>
      <stop offset="100%" style="stop-color:#fbbf24;stop-opacity:0"/>
    </linearGradient>
    <linearGradient id="handGrad" x1="30%" y1="0%" x2="70%" y2="100%">
      <stop offset="0%" style="stop-color:#fbbf24"/>
      <stop offset="50%" style="stop-color:#f59e0b"/>
      <stop offset="100%" style="stop-color:#d97706"/>
    </linearGradient>
    <linearGradient id="circleGrad" x1="0%" y1="0%" x2="100%" y2="100%">
      <stop offset="0%" style="stop-color:#1a6b3c"/>
      <stop offset="100%" style="stop-color:#2e8b57"/>
    </linearGradient>
  </defs>
  <circle cx="60" cy="60" r="56" fill="url(#circleGrad)" stroke="#0d4f2b" stroke-width="2"/>
  <circle cx="60" cy="60" r="48" fill="url(#glow)"/>
  <g opacity="0.4">
    <line x1="60" y1="18" x2="60" y2="28" stroke="#fbbf24" stroke-width="1.5" stroke-linecap="round"/>
    <line x1="42" y1="22" x2="46" y2="31" stroke="#fbbf24" stroke-width="1.2" stroke-linecap="round"/>
    <line x1="78" y1="22" x2="74" y2="31" stroke="#fbbf24" stroke-width="1.2" stroke-linecap="round"/>
    <line x1="32" y1="32" x2="38" y2="38" stroke="#fbbf24" stroke-width="1" stroke-linecap="round"/>
    <line x1="88" y1="32" x2="82" y2="38" stroke="#fbbf24" stroke-width="1" stroke-linecap="round"/>
    <line x1="26" y1="46" x2="34" y2="48" stroke="#fbbf24" stroke-width="1" stroke-linecap="round"/>
    <line x1="94" y1="46" x2="86" y2="48" stroke="#fbbf24" stroke-width="1" stroke-linecap="round"/>
  </g>
  <circle cx="38" cy="26" r="1.2" fill="#fbbf24" opacity="0.5"/>
  <circle cx="82" cy="26" r="1.2" fill="#fbbf24" opacity="0.5"/>
  <circle cx="28" cy="42" r="1" fill="#fbbf24" opacity="0.4"/>
  <circle cx="92" cy="42" r="1" fill="#fbbf24" opacity="0.4"/>
  <g transform="translate(60,58)">
    <path d="M-4,32 C-6,28 -14,20 -16,10 C-17,4 -16,-2 -14,-6 L-12,-10 C-11,-13 -10,-16 -10,-20 C-10,-24 -11,-28 -11,-32 C-11,-36 -10,-39 -8,-39 C-6,-39 -5,-36 -5,-32 C-5,-28 -5,-24 -5,-20" fill="url(#handGrad)" stroke="#d97706" stroke-width="0.8"/>
    <path d="M-5,-20 C-5,-24 -6,-32 -6,-38 C-6,-42 -5,-44 -3.5,-44 C-2,-44 -1,-42 -1,-38 C-1,-32 -1,-24 -1,-20" fill="url(#handGrad)" stroke="#d97706" stroke-width="0.8"/>
    <path d="M-1,-20 C-1,-26 -1.5,-36 -1.5,-42 C-1.5,-46 -0.5,-48 0.5,-48 C1.5,-48 2.5,-46 2.5,-42 C2.5,-36 2,-26 2,-20" fill="url(#handGrad)" stroke="#d97706" stroke-width="0.8"/>
    <path d="M2,-20 C2,-24 3,-32 3,-38 C3,-42 4,-44 5.5,-44 C7,-44 8,-42 8,-38 C8,-32 7,-24 7,-20" fill="url(#handGrad)" stroke="#d97706" stroke-width="0.8"/>
    <path d="M7,-20 C7,-24 8,-28 8,-32 C8,-36 9,-39 11,-39 C13,-39 14,-36 14,-32 C14,-28 13,-24 12,-20 L12,-10 C13,-13 14,-2 16,4 C17,10 14,20 10,28 L6,32" fill="url(#handGrad)" stroke="#d97706" stroke-width="0.8"/>
    <line x1="1" y1="-44" x2="1" y2="32" stroke="#d97706" stroke-width="0.5" opacity="0.5"/>
    <path d="M-14,-4 C-18,-2 -20,2 -18,6 C-16,9 -13,8 -12,5 C-11,2 -12,-1 -14,-4Z" fill="url(#handGrad)" stroke="#d97706" stroke-width="0.8"/>
    <path d="M16,-4 C20,-2 22,2 20,6 C18,9 15,8 14,5 C13,2 14,-1 16,-4Z" fill="url(#handGrad)" stroke="#d97706" stroke-width="0.8"/>
    <path d="M-8,8 C-4,5 4,5 8,8" stroke="#d97706" stroke-width="0.4" fill="none" opacity="0.4"/>
    <path d="M-6,14 C-2,12 2,12 6,14" stroke="#d97706" stroke-width="0.4" fill="none" opacity="0.4"/>
  </g>
  <circle cx="60" cy="16" r="2.5" fill="#fbbf24" opacity="0.7"/>
  <circle cx="60" cy="16" r="1.2" fill="#fff" opacity="0.6"/>
  <path d="M35,98 Q60,108 85,98" stroke="#fbbf24" stroke-width="1.5" fill="none" opacity="0.4" stroke-linecap="round"/>
  <path d="M40,102 Q60,110 80,102" stroke="#fbbf24" stroke-width="1" fill="none" opacity="0.3" stroke-linecap="round"/>
</svg>
